{
	"asset":{
		"generator":"Khronos glTF Blender I/O v3.5.30",
		"version":"2.0"
	},
	"scene":0,
	"scenes":[
		{
			"name":"Scene",
			"nodes":[
				0,
				1,
				2,
				3,
				4,
				5,
				6,
				7,
				8,
				9
			]
		}
	],
	"nodes":[
		{
			"mesh":0,
			"name":"Plane"
		},
		{
			"mesh":1,
			"name":"Vert",
			"scale":[
				0.43083447217941284,
				0.43083447217941284,
				0.43083447217941284
			],
			"translation":[
				-5.665521144866943,
				0.13455167412757874,
				-6.6119303703308105
			]
		},
		{
			"mesh":2,
			"name":"Vert.001",
			"scale":[
				0.43083447217941284,
				0.43083447217941284,
				0.43083447217941284
			],
			"translation":[
				-6.173474311828613,
				0.13455167412757874,
				-3.5359907150268555
			]
		},
		{
			"mesh":3,
			"name":"Vert.002",
			"scale":[
				0.43083447217941284,
				0.43083447217941284,
				0.43083447217941284
			],
			"translation":[
				0.9943108558654785,
				0.13455167412757874,
				-6.75302791595459
			]
		},
		{
			"mesh":4,
			"name":"Vert.003",
			"scale":[
				0.43083447217941284,
				0.43083447217941284,
				0.43083447217941284
			],
			"translation":[
				2.2924137115478516,
				0.13455167412757874,
				-5.003411293029785
			]
		},
		{
			"mesh":5,
			"name":"Vert.004",
			"scale":[
				0.43083447217941284,
				0.43083447217941284,
				0.43083447217941284
			],
			"translation":[
				2.5181708335876465,
				0.13455167412757874,
				-3.5077710151672363
			]
		},
		{
			"mesh":6,
			"name":"Vert.005",
			"scale":[
				0.43083447217941284,
				0.43083447217941284,
				0.43083447217941284
			],
			"translation":[
				-5.157567501068115,
				0.4762231111526489,
				4.026869773864746
			]
		},
		{
			"mesh":7,
			"name":"Vert.006",
			"scale":[
				0.43083447217941284,
				0.43083447217941284,
				0.43083447217941284
			],
			"translation":[
				5.565890789031982,
				0.4762231111526489,
				2.0514957904815674
			]
		},
		{
			"mesh":8,
			"name":"Vert.007",
			"scale":[
				0.43083447217941284,
				0.43083447217941284,
				0.43083447217941284
			],
			"translation":[
				6.610016822814941,
				0.13455167412757874,
				-3.140915632247925
			]
		},
		{
			"mesh":9,
			"name":"Vert.008",
			"scale":[
				0.43083447217941284,
				0.43083447217941284,
				0.43083447217941284
			],
			"translation":[
				7.4283857345581055,
				0.13455167412757874,
				-7.289200782775879
			]
		}
	],
	"materials":[
		{
			"doubleSided":true,
			"name":"Material.005",
			"pbrMetallicRoughness":{
				"baseColorFactor":[
					0.8000000715255737,
					0.2221941500902176,
					0.15296944975852966,
					1
				],
				"metallicFactor":0,
				"roughnessFactor":0.5
			}
		},
		{
			"doubleSided":true,
			"name":"Material.003",
			"pbrMetallicRoughness":{
				"baseColorFactor":[
					0.16794700920581818,
					0.06352204084396362,
					0.01689312607049942,
					1
				],
				"metallicFactor":0,
				"roughnessFactor":0.5
			}
		},
		{
			"doubleSided":true,
			"name":"Material.004",
			"pbrMetallicRoughness":{
				"baseColorFactor":[
					0.15625576674938202,
					0.8000000715255737,
					0,
					1
				],
				"metallicFactor":0,
				"roughnessFactor":0.5
			}
		}
	],
	"meshes":[
		{
			"name":"Plane",
			"primitives":[
				{
					"attributes":{
						"POSITION":0,
						"TEXCOORD_0":1,
						"NORMAL":2
					},
					"indices":3,
					"material":0
				}
			]
		},
		{
			"name":"Vert",
			"primitives":[
				{
					"attributes":{
						"POSITION":4,
						"TEXCOORD_0":5,
						"NORMAL":6
					},
					"indices":7,
					"material":1
				},
				{
					"attributes":{
						"POSITION":8,
						"TEXCOORD_0":9,
						"NORMAL":10
					},
					"indices":11,
					"material":2
				}
			]
		},
		{
			"name":"Vert.001",
			"primitives":[
				{
					"attributes":{
						"POSITION":12,
						"TEXCOORD_0":13,
						"NORMAL":14
					},
					"indices":7,
					"material":1
				},
				{
					"attributes":{
						"POSITION":15,
						"TEXCOORD_0":16,
						"NORMAL":17
					},
					"indices":11,
					"material":2
				}
			]
		},
		{
			"name":"Vert.002",
			"primitives":[
				{
					"attributes":{
						"POSITION":18,
						"TEXCOORD_0":19,
						"NORMAL":20
					},
					"indices":7,
					"material":1
				},
				{
					"attributes":{
						"POSITION":21,
						"TEXCOORD_0":22,
						"NORMAL":23
					},
					"indices":11,
					"material":2
				}
			]
		},
		{
			"name":"Vert.003",
			"primitives":[
				{
					"attributes":{
						"POSITION":24,
						"TEXCOORD_0":25,
						"NORMAL":26
					},
					"indices":7,
					"material":1
				},
				{
					"attributes":{
						"POSITION":27,
						"TEXCOORD_0":28,
						"NORMAL":29
					},
					"indices":11,
					"material":2
				}
			]
		},
		{
			"name":"Vert.004",
			"primitives":[
				{
					"attributes":{
						"POSITION":30,
						"TEXCOORD_0":31,
						"NORMAL":32
					},
					"indices":7,
					"material":1
				},
				{
					"attributes":{
						"POSITION":33,
						"TEXCOORD_0":34,
						"NORMAL":35
					},
					"indices":11,
					"material":2
				}
			]
		},
		{
			"name":"Vert.005",
			"primitives":[
				{
					"attributes":{
						"POSITION":36,
						"TEXCOORD_0":37,
						"NORMAL":38
					},
					"indices":7,
					"material":1
				},
				{
					"attributes":{
						"POSITION":39,
						"TEXCOORD_0":40,
						"NORMAL":41
					},
					"indices":11,
					"material":2
				}
			]
		},
		{
			"name":"Vert.006",
			"primitives":[
				{
					"attributes":{
						"POSITION":42,
						"TEXCOORD_0":43,
						"NORMAL":44
					},
					"indices":7,
					"material":1
				},
				{
					"attributes":{
						"POSITION":45,
						"TEXCOORD_0":46,
						"NORMAL":47
					},
					"indices":11,
					"material":2
				}
			]
		},
		{
			"name":"Vert.007",
			"primitives":[
				{
					"attributes":{
						"POSITION":48,
						"TEXCOORD_0":49,
						"NORMAL":50
					},
					"indices":7,
					"material":1
				},
				{
					"attributes":{
						"POSITION":51,
						"TEXCOORD_0":52,
						"NORMAL":53
					},
					"indices":11,
					"material":2
				}
			]
		},
		{
			"name":"Vert.008",
			"primitives":[
				{
					"attributes":{
						"POSITION":54,
						"TEXCOORD_0":55,
						"NORMAL":56
					},
					"indices":7,
					"material":1
				},
				{
					"attributes":{
						"POSITION":57,
						"TEXCOORD_0":58,
						"NORMAL":59
					},
					"indices":11,
					"material":2
				}
			]
		}
	],
	"accessors":[
		{
			"bufferView":0,
			"componentType":5126,
			"count":4273,
			"max":[
				8.6378812789917,
				1.3326150178909302,
				8.6378812789917
			],
			"min":[
				-8.6378812789917,
				-2.772449493408203,
				-8.6378812789917
			],
			"type":"VEC3"
		},
		{
			"bufferView":1,
			"componentType":5126,
			"count":4273,
			"type":"VEC2"
		},
		{
			"bufferView":2,
			"componentType":5126,
			"count":4273,
			"type":"VEC3"
		},
		{
			"bufferView":3,
			"componentType":5123,
			"count":10080,
			"type":"SCALAR"
		},
		{
			"bufferView":4,
			"componentType":5126,
			"count":4162,
			"max":[
				1.916573405265808,
				4.283010959625244,
				1.296798825263977
			],
			"min":[
				-2.594243049621582,
				0.07824881374835968,
				-1.0211267471313477
			],
			"type":"VEC3"
		},
		{
			"bufferView":5,
			"componentType":5126,
			"count":4162,
			"type":"VEC2"
		},
		{
			"bufferView":6,
			"componentType":5126,
			"count":4162,
			"type":"VEC3"
		},
		{
			"bufferView":7,
			"componentType":5123,
			"count":7656,
			"type":"SCALAR"
		},
		{
			"bufferView":8,
			"componentType":5126,
			"count":180,
			"max":[
				2.784513473510742,
				5.1079912185668945,
				2.4285178184509277
			],
			"min":[
				-3.9040307998657227,
				2.3386313915252686,
				-2.195011615753174
			],
			"type":"VEC3"
		},
		{
			"bufferView":9,
			"componentType":5126,
			"count":180,
			"type":"VEC2"
		},
		{
			"bufferView":10,
			"componentType":5126,
			"count":180,
			"type":"VEC3"
		},
		{
			"bufferView":11,
			"componentType":5123,
			"count":180,
			"type":"SCALAR"
		},
		{
			"bufferView":12,
			"componentType":5126,
			"count":4162,
			"max":[
				1.916573405265808,
				4.283010959625244,
				1.296798825263977
			],
			"min":[
				-2.594243049621582,
				0.07824881374835968,
				-1.0211267471313477
			],
			"type":"VEC3"
		},
		{
			"bufferView":13,
			"componentType":5126,
			"count":4162,
			"type":"VEC2"
		},
		{
			"bufferView":14,
			"componentType":5126,
			"count":4162,
			"type":"VEC3"
		},
		{
			"bufferView":15,
			"componentType":5126,
			"count":180,
			"max":[
				2.784513473510742,
				5.1079912185668945,
				2.4285178184509277
			],
			"min":[
				-3.9040307998657227,
				2.3386313915252686,
				-2.195011615753174
			],
			"type":"VEC3"
		},
		{
			"bufferView":16,
			"componentType":5126,
			"count":180,
			"type":"VEC2"
		},
		{
			"bufferView":17,
			"componentType":5126,
			"count":180,
			"type":"VEC3"
		},
		{
			"bufferView":18,
			"componentType":5126,
			"count":4162,
			"max":[
				1.916573405265808,
				4.283010959625244,
				1.296798825263977
			],
			"min":[
				-2.594243049621582,
				0.07824881374835968,
				-1.0211267471313477
			],
			"type":"VEC3"
		},
		{
			"bufferView":19,
			"componentType":5126,
			"count":4162,
			"type":"VEC2"
		},
		{
			"bufferView":20,
			"componentType":5126,
			"count":4162,
			"type":"VEC3"
		},
		{
			"bufferView":21,
			"componentType":5126,
			"count":180,
			"max":[
				2.784513473510742,
				5.1079912185668945,
				2.4285178184509277
			],
			"min":[
				-3.9040307998657227,
				2.3386313915252686,
				-2.195011615753174
			],
			"type":"VEC3"
		},
		{
			"bufferView":22,
			"componentType":5126,
			"count":180,
			"type":"VEC2"
		},
		{
			"bufferView":23,
			"componentType":5126,
			"count":180,
			"type":"VEC3"
		},
		{
			"bufferView":24,
			"componentType":5126,
			"count":4162,
			"max":[
				1.916573405265808,
				4.283010959625244,
				1.296798825263977
			],
			"min":[
				-2.594243049621582,
				0.07824881374835968,
				-1.0211267471313477
			],
			"type":"VEC3"
		},
		{
			"bufferView":25,
			"componentType":5126,
			"count":4162,
			"type":"VEC2"
		},
		{
			"bufferView":26,
			"componentType":5126,
			"count":4162,
			"type":"VEC3"
		},
		{
			"bufferView":27,
			"componentType":5126,
			"count":180,
			"max":[
				2.784513473510742,
				5.1079912185668945,
				2.4285178184509277
			],
			"min":[
				-3.9040307998657227,
				2.3386313915252686,
				-2.195011615753174
			],
			"type":"VEC3"
		},
		{
			"bufferView":28,
			"componentType":5126,
			"count":180,
			"type":"VEC2"
		},
		{
			"bufferView":29,
			"componentType":5126,
			"count":180,
			"type":"VEC3"
		},
		{
			"bufferView":30,
			"componentType":5126,
			"count":4162,
			"max":[
				1.916573405265808,
				4.283010959625244,
				1.296798825263977
			],
			"min":[
				-2.594243049621582,
				0.07824881374835968,
				-1.0211267471313477
			],
			"type":"VEC3"
		},
		{
			"bufferView":31,
			"componentType":5126,
			"count":4162,
			"type":"VEC2"
		},
		{
			"bufferView":32,
			"componentType":5126,
			"count":4162,
			"type":"VEC3"
		},
		{
			"bufferView":33,
			"componentType":5126,
			"count":180,
			"max":[
				2.784513473510742,
				5.1079912185668945,
				2.4285178184509277
			],
			"min":[
				-3.9040307998657227,
				2.3386313915252686,
				-2.195011615753174
			],
			"type":"VEC3"
		},
		{
			"bufferView":34,
			"componentType":5126,
			"count":180,
			"type":"VEC2"
		},
		{
			"bufferView":35,
			"componentType":5126,
			"count":180,
			"type":"VEC3"
		},
		{
			"bufferView":36,
			"componentType":5126,
			"count":4162,
			"max":[
				1.916573405265808,
				4.283010959625244,
				1.296798825263977
			],
			"min":[
				-2.594243049621582,
				0.07824881374835968,
				-1.0211267471313477
			],
			"type":"VEC3"
		},
		{
			"bufferView":37,
			"componentType":5126,
			"count":4162,
			"type":"VEC2"
		},
		{
			"bufferView":38,
			"componentType":5126,
			"count":4162,
			"type":"VEC3"
		},
		{
			"bufferView":39,
			"componentType":5126,
			"count":180,
			"max":[
				2.784513473510742,
				5.1079912185668945,
				2.4285178184509277
			],
			"min":[
				-3.9040307998657227,
				2.3386313915252686,
				-2.195011615753174
			],
			"type":"VEC3"
		},
		{
			"bufferView":40,
			"componentType":5126,
			"count":180,
			"type":"VEC2"
		},
		{
			"bufferView":41,
			"componentType":5126,
			"count":180,
			"type":"VEC3"
		},
		{
			"bufferView":42,
			"componentType":5126,
			"count":4162,
			"max":[
				1.916573405265808,
				4.283010959625244,
				1.296798825263977
			],
			"min":[
				-2.594243049621582,
				0.07824881374835968,
				-1.0211267471313477
			],
			"type":"VEC3"
		},
		{
			"bufferView":43,
			"componentType":5126,
			"count":4162,
			"type":"VEC2"
		},
		{
			"bufferView":44,
			"componentType":5126,
			"count":4162,
			"type":"VEC3"
		},
		{
			"bufferView":45,
			"componentType":5126,
			"count":180,
			"max":[
				2.784513473510742,
				5.1079912185668945,
				2.4285178184509277
			],
			"min":[
				-3.9040307998657227,
				2.3386313915252686,
				-2.195011615753174
			],
			"type":"VEC3"
		},
		{
			"bufferView":46,
			"componentType":5126,
			"count":180,
			"type":"VEC2"
		},
		{
			"bufferView":47,
			"componentType":5126,
			"count":180,
			"type":"VEC3"
		},
		{
			"bufferView":48,
			"componentType":5126,
			"count":4162,
			"max":[
				1.916573405265808,
				4.283010959625244,
				1.296798825263977
			],
			"min":[
				-2.594243049621582,
				0.07824881374835968,
				-1.0211267471313477
			],
			"type":"VEC3"
		},
		{
			"bufferView":49,
			"componentType":5126,
			"count":4162,
			"type":"VEC2"
		},
		{
			"bufferView":50,
			"componentType":5126,
			"count":4162,
			"type":"VEC3"
		},
		{
			"bufferView":51,
			"componentType":5126,
			"count":180,
			"max":[
				2.784513473510742,
				5.1079912185668945,
				2.4285178184509277
			],
			"min":[
				-3.9040307998657227,
				2.3386313915252686,
				-2.195011615753174
			],
			"type":"VEC3"
		},
		{
			"bufferView":52,
			"componentType":5126,
			"count":180,
			"type":"VEC2"
		},
		{
			"bufferView":53,
			"componentType":5126,
			"count":180,
			"type":"VEC3"
		},
		{
			"bufferView":54,
			"componentType":5126,
			"count":4162,
			"max":[
				1.916573405265808,
				4.283010959625244,
				1.296798825263977
			],
			"min":[
				-2.594243049621582,
				0.07824881374835968,
				-1.0211267471313477
			],
			"type":"VEC3"
		},
		{
			"bufferView":55,
			"componentType":5126,
			"count":4162,
			"type":"VEC2"
		},
		{
			"bufferView":56,
			"componentType":5126,
			"count":4162,
			"type":"VEC3"
		},
		{
			"bufferView":57,
			"componentType":5126,
			"count":180,
			"max":[
				2.784513473510742,
				5.1079912185668945,
				2.4285178184509277
			],
			"min":[
				-3.9040307998657227,
				2.3386313915252686,
				-2.195011615753174
			],
			"type":"VEC3"
		},
		{
			"bufferView":58,
			"componentType":5126,
			"count":180,
			"type":"VEC2"
		},
		{
			"bufferView":59,
			"componentType":5126,
			"count":180,
			"type":"VEC3"
		}
	],
	"bufferViews":[
		{
			"buffer":0,
			"byteLength":51276,
			"byteOffset":0,
			"target":34962
		},
		{
			"buffer":0,
			"byteLength":34184,
			"byteOffset":51276,
			"target":34962
		},
		{
			"buffer":0,
			"byteLength":51276,
			"byteOffset":85460,
			"target":34962
		},
		{
			"buffer":0,
			"byteLength":20160,
			"byteOffset":136736,
			"target":34963
		},
		{
			"buffer":0,
			"byteLength":49944,
			"byteOffset":156896,
			"target":34962
		},
		{
			"buffer":0,
			"byteLength":33296,
			"byteOffset":206840,
			"target":34962
		},
		{
			"buffer":0,
			"byteLength":49944,
			"byteOffset":240136,
			"target":34962
		},
		{
			"buffer":0,
			"byteLength":15312,
			"byteOffset":290080,
			"target":34963
		},
		{
			"buffer":0,
			"byteLength":2160,
			"byteOffset":305392,
			"target":34962
		},
		{
			"buffer":0,
			"byteLength":1440,
			"byteOffset":307552,
			"target":34962
		},
		{
			"buffer":0,
			"byteLength":2160,
			"byteOffset":308992,
			"target":34962
		},
		{
			"buffer":0,
			"byteLength":360,
			"byteOffset":311152,
			"target":34963
		},
		{
			"buffer":0,
			"byteLength":49944,
			"byteOffset":311512,
			"target":34962
		},
		{
			"buffer":0,
			"byteLength":33296,
			"byteOffset":361456,
			"target":34962
		},
		{
			"buffer":0,
			"byteLength":49944,
			"byteOffset":394752,
			"target":34962
		},
		{
			"buffer":0,
			"byteLength":2160,
			"byteOffset":444696,
			"target":34962
		},
		{
			"buffer":0,
			"byteLength":1440,
			"byteOffset":446856,
			"target":34962
		},
		{
			"buffer":0,
			"byteLength":2160,
			"byteOffset":448296,
			"target":34962
		},
		{
			"buffer":0,
			"byteLength":49944,
			"byteOffset":450456,
			"target":34962
		},
		{
			"buffer":0,
			"byteLength":33296,
			"byteOffset":500400,
			"target":34962
		},
		{
			"buffer":0,
			"byteLength":49944,
			"byteOffset":533696,
			"target":34962
		},
		{
			"buffer":0,
			"byteLength":2160,
			"byteOffset":583640,
			"target":34962
		},
		{
			"buffer":0,
			"byteLength":1440,
			"byteOffset":585800,
			"target":34962
		},
		{
			"buffer":0,
			"byteLength":2160,
			"byteOffset":587240,
			"target":34962
		},
		{
			"buffer":0,
			"byteLength":49944,
			"byteOffset":589400,
			"target":34962
		},
		{
			"buffer":0,
			"byteLength":33296,
			"byteOffset":639344,
			"target":34962
		},
		{
			"buffer":0,
			"byteLength":49944,
			"byteOffset":672640,
			"target":34962
		},
		{
			"buffer":0,
			"byteLength":2160,
			"byteOffset":722584,
			"target":34962
		},
		{
			"buffer":0,
			"byteLength":1440,
			"byteOffset":724744,
			"target":34962
		},
		{
			"buffer":0,
			"byteLength":2160,
			"byteOffset":726184,
			"target":34962
		},
		{
			"buffer":0,
			"byteLength":49944,
			"byteOffset":728344,
			"target":34962
		},
		{
			"buffer":0,
			"byteLength":33296,
			"byteOffset":778288,
			"target":34962
		},
		{
			"buffer":0,
			"byteLength":49944,
			"byteOffset":811584,
			"target":34962
		},
		{
			"buffer":0,
			"byteLength":2160,
			"byteOffset":861528,
			"target":34962
		},
		{
			"buffer":0,
			"byteLength":1440,
			"byteOffset":863688,
			"target":34962
		},
		{
			"buffer":0,
			"byteLength":2160,
			"byteOffset":865128,
			"target":34962
		},
		{
			"buffer":0,
			"byteLength":49944,
			"byteOffset":867288,
			"target":34962
		},
		{
			"buffer":0,
			"byteLength":33296,
			"byteOffset":917232,
			"target":34962
		},
		{
			"buffer":0,
			"byteLength":49944,
			"byteOffset":950528,
			"target":34962
		},
		{
			"buffer":0,
			"byteLength":2160,
			"byteOffset":1000472,
			"target":34962
		},
		{
			"buffer":0,
			"byteLength":1440,
			"byteOffset":1002632,
			"target":34962
		},
		{
			"buffer":0,
			"byteLength":2160,
			"byteOffset":1004072,
			"target":34962
		},
		{
			"buffer":0,
			"byteLength":49944,
			"byteOffset":1006232,
			"target":34962
		},
		{
			"buffer":0,
			"byteLength":33296,
			"byteOffset":1056176,
			"target":34962
		},
		{
			"buffer":0,
			"byteLength":49944,
			"byteOffset":1089472,
			"target":34962
		},
		{
			"buffer":0,
			"byteLength":2160,
			"byteOffset":1139416,
			"target":34962
		},
		{
			"buffer":0,
			"byteLength":1440,
			"byteOffset":1141576,
			"target":34962
		},
		{
			"buffer":0,
			"byteLength":2160,
			"byteOffset":1143016,
			"target":34962
		},
		{
			"buffer":0,
			"byteLength":49944,
			"byteOffset":1145176,
			"target":34962
		},
		{
			"buffer":0,
			"byteLength":33296,
			"byteOffset":1195120,
			"target":34962
		},
		{
			"buffer":0,
			"byteLength":49944,
			"byteOffset":1228416,
			"target":34962
		},
		{
			"buffer":0,
			"byteLength":2160,
			"byteOffset":1278360,
			"target":34962
		},
		{
			"buffer":0,
			"byteLength":1440,
			"byteOffset":1280520,
			"target":34962
		},
		{
			"buffer":0,
			"byteLength":2160,
			"byteOffset":1281960,
			"target":34962
		},
		{
			"buffer":0,
			"byteLength":49944,
			"byteOffset":1284120,
			"target":34962
		},
		{
			"buffer":0,
			"byteLength":33296,
			"byteOffset":1334064,
			"target":34962
		},
		{
			"buffer":0,
			"byteLength":49944,
			"byteOffset":1367360,
			"target":34962
		},
		{
			"buffer":0,
			"byteLength":2160,
			"byteOffset":1417304,
			"target":34962
		},
		{
			"buffer":0,
			"byteLength":1440,
			"byteOffset":1419464,
			"target":34962
		},
		{
			"buffer":0,
			"byteLength":2160,
			"byteOffset":1420904,
			"target":34962
		}
	],
	"buffers":[
		{
			"byteLength":1423064,
			"uri":"data:application/octet-stream;base64,"
		}
	]
}
