{
	"asset":{
		"generator":"Khronos glTF Blender I/O v3.5.30",
		"version":"2.0"
	},
	"scene":0,
	"scenes":[
		{
			"name":"Scene",
			"nodes":[
				0
			]
		}
	],
	"nodes":[
		{
			"mesh":0,
			"name":"Suzanne"
		}
	],
	"materials":[
		{
			"doubleSided":true,
			"name":"Material.001",
			"pbrMetallicRoughness":{
				"baseColorFactor":[
					0,
					0.00507052568718791,
					0.027209807187318802,
					1
				],
				"metallicFactor":0,
				"roughnessFactor":0.5
			}
		},
		{
			"doubleSided":true,
			"name":"Material.002",
			"pbrMetallicRoughness":{
				"baseColorFactor":[
					0.8000000715255737,
					0.037795938551425934,
					0,
					1
				],
				"metallicFactor":0,
				"roughnessFactor":0.5
			}
		}
	],
	"meshes":[
		{
			"name":"Suzanne",
			"primitives":[
				{
					"attributes":{
						"POSITION":0,
						"TEXCOORD_0":1,
						"NORMAL":2
					},
					"indices":3,
					"material":0
				},
				{
					"attributes":{
						"POSITION":4,
						"TEXCOORD_0":5,
						"NORMAL":6
					},
					"indices":7,
					"material":1
				}
			]
		}
	],
	"accessors":[
		{
			"bufferView":0,
			"componentType":5126,
			"count":1754,
			"max":[
				1.325934886932373,
				0.9392362236976624,
				0.8208942413330078
			],
			"min":[
				-1.325934886932373,
				-0.9704862236976624,
				-0.7782661318778992
			],
			"type":"VEC3"
		},
		{
			"bufferView":1,
			"componentType":5126,
			"count":1754,
			"type":"VEC2"
		},
		{
			"bufferView":2,
			"componentType":5126,
			"count":1754,
			"type":"VEC3"
		},
		{
			"bufferView":3,
			"componentType":5123,
			"count":10368,
			"type":"SCALAR"
		},
		{
			"bufferView":4,
			"componentType":5126,
			"count":258,
			"max":[
				0.5989583730697632,
				0.48958340287208557,
				0.8223199844360352
			],
			"min":[
				-0.5989583730697632,
				0.002604166977107525,
				0.567708432674408
			],
			"type":"VEC3"
		},
		{
			"bufferView":5,
			"componentType":5126,
			"count":258,
			"type":"VEC2"
		},
		{
			"bufferView":6,
			"componentType":5126,
			"count":258,
			"type":"VEC3"
		},
		{
			"bufferView":7,
			"componentType":5123,
			"count":1440,
			"type":"SCALAR"
		}
	],
	"bufferViews":[
		{
			"buffer":0,
			"byteLength":21048,
			"byteOffset":0,
			"target":34962
		},
		{
			"buffer":0,
			"byteLength":14032,
			"byteOffset":21048,
			"target":34962
		},
		{
			"buffer":0,
			"byteLength":21048,
			"byteOffset":35080,
			"target":34962
		},
		{
			"buffer":0,
			"byteLength":20736,
			"byteOffset":56128,
			"target":34963
		},
		{
			"buffer":0,
			"byteLength":3096,
			"byteOffset":76864,
			"target":34962
		},
		{
			"buffer":0,
			"byteLength":2064,
			"byteOffset":79960,
			"target":34962
		},
		{
			"buffer":0,
			"byteLength":3096,
			"byteOffset":82024,
			"target":34962
		},
		{
			"buffer":0,
			"byteLength":2880,
			"byteOffset":85120,
			"target":34963
		}
	],
	"buffers":[
		{
			"byteLength":88000,
			"uri":"data:application/octet-stream;base64,"
		}
	]
}
